# xmcd
#
# Track frame offsets: 
#        150
#        11925
#        23775
#        45937
#        58600
#        82000
#        98600
#        117737
#        130575
#        143350
#        156325
#        170375
#        186762
#        200887
#        215975
#
# Disc length: 3086 seconds
#
# Revision: 1
# Processed by: cddbd v1.5.2PL0 Copyright (c) Steve Scherf et al.
# Submitted via: ExactAudioCopy v1.0b3
#
DISCID=d30c0c0f
DTITLE=Mojo Blues Band - Their hottest Bricks CD 2
DYEAR=1998
DGENRE=Blues
TTITLE0=Big ten Inch
TTITLE1=Tribute to Otis
TTITLE2=My Blues after hours
TTITLE3=Sea Cruise
TTITLE4=Drunken Boy
TTITLE5=Blue Job (instrumental)
TTITLE6=Mighty tight Woman
TTITLE7=Hot Bricks
TTITLE8=Viola
TTITLE9=Old Maid Boogie
TTITLE10=7th Floor Boogie
TTITLE11=One for the  Road (instrumental)
TTITLE12=V.S.O.P Stomp (Very Superior Old Piano)
TTITLE13=Gotta go Home
TTITLE14=Steel me (instrumental)
EXTD=
EXTT0=
EXTT1=
EXTT2=
EXTT3=
EXTT4=
EXTT5=
EXTT6=
EXTT7=
EXTT8=
EXTT9=
EXTT10=
EXTT11=
EXTT12=
EXTT13=
EXTT14=
PLAYORDER=
